<svg width="69" height="100" viewBox="0 0 69 100" fill="none" xmlns="http://www.w3.org/2000/svg">
<path d="M50.125 75C52 68.7695 55.8867 63.457 59.7344 58.1641C60.75 56.7773 61.7656 55.3906 62.7422 53.9844C66.6094 48.418 68.875 41.6797 68.875 34.3945C68.875 15.3906 53.4844 0 34.5 0C15.5156 0 0.125 15.3906 0.125 34.375C0.125 41.6602 2.39063 48.418 6.25781 53.9648C7.23438 55.3711 8.25 56.7578 9.26562 58.1445C13.1328 63.4375 17.0195 68.7695 18.875 74.9805H50.125V75ZM34.5 100C43.1328 100 50.125 93.0078 50.125 84.375V81.25H18.875V84.375C18.875 93.0078 25.8672 100 34.5 100ZM18.875 34.375C18.875 36.0938 17.4688 37.5 15.75 37.5C14.0312 37.5 12.625 36.0938 12.625 34.375C12.625 22.2852 22.4102 12.5 34.5 12.5C36.2188 12.5 37.625 13.9062 37.625 15.625C37.625 17.3438 36.2188 18.75 34.5 18.75C25.8672 18.75 18.875 25.7422 18.875 34.375Z" fill="#78E353"/>
</svg>
